<svg version="1.1" viewBox="0.0 0.0 343.03937007874015 136.0" fill="none" stroke="none" stroke-linecap="square" stroke-miterlimit="10" xmlns:xlink="http://www.w3.org/1999/xlink" xmlns="http://www.w3.org/2000/svg"><clipPath id="p.0"><path d="m0 0l343.03937 0l0 136.0l-343.03937 0l0 -136.0z" clip-rule="nonzero"/></clipPath><g clip-path="url(#p.0)"><path fill="#000000" fill-opacity="0.0" d="m0 0l343.03937 0l0 136.0l-343.03937 0z" fill-rule="evenodd"/><g filter="url(#shadowFilter-p.1)"><use xlink:href="#p.1" transform="matrix(1.0 0.0 0.0 1.0 0.0 2.0)"/></g><defs><filter id="shadowFilter-p.1" filterUnits="userSpaceOnUse"><feGaussianBlur in="SourceAlpha" stdDeviation="2.0" result="blur"/><feComponentTransfer in="blur" color-interpolation-filters="sRGB"><feFuncR type="linear" slope="0" intercept="0.0"/><feFuncG type="linear" slope="0" intercept="0.0"/><feFuncB type="linear" slope="0" intercept="0.0"/><feFuncA type="linear" slope="0.5" intercept="0"/></feComponentTransfer></filter></defs><g id="p.1"><path fill="#47be71" fill-opacity="0.2243" d="m-1.527559 47.299644l250.56671 -0.3704567l0 -18.050299l90.28369 36.54368l-90.28369 36.810646l0 -18.050293l-250.56671 0.37045288l45.851467 -18.694656z" fill-rule="evenodd"/></g><g filter="url(#shadowFilter-p.2)"><use xlink:href="#p.2" transform="matrix(1.0 0.0 0.0 1.0 0.0 2.0)"/></g><defs><filter id="shadowFilter-p.2" filterUnits="userSpaceOnUse"><feGaussianBlur in="SourceAlpha" stdDeviation="2.0" result="blur"/><feComponentTransfer in="blur" color-interpolation-filters="sRGB"><feFuncR type="linear" slope="0" intercept="0.0"/><feFuncG type="linear" slope="0" intercept="0.0"/><feFuncB type="linear" slope="0" intercept="0.0"/><feFuncA type="linear" slope="0.5" intercept="0"/></feComponentTransfer></filter></defs><g id="p.2"><path fill="#000000" fill-opacity="0.0" d="m76.45932 43.00525l330.4882 -0.03149414l0 58.992126l-330.4882 0.03149414z" fill-rule="evenodd"/><path fill="#00ac67" d="m133.34995 81.4092l-17.421875 0.0016555786l0 47.390625l-11.71875 0.0011138916l0 -47.390617l-17.1875 0.0016326904l0 -9.484375l46.328125 -0.00440979l0 9.484375zm27.15625 15.700531q-2.3125 -0.31227875 -4.0625 -0.3121109q-6.40625 6.1035156E-4 -8.40625 4.344551l0 27.656258l-11.28125 0.0010681152l0 -42.265625l10.65625 -0.0010147095l0.3125 5.0312195q3.40625 -5.812828 9.421875 -5.8134003q1.875 -1.7547607E-4 3.515625 0.4996643l-0.15625 10.85939zm24.140625 32.466454q-9.296875 8.8500977E-4 -15.140625 -5.701683q-5.84375 -5.702568 -5.84375 -15.202568l0 -1.09375q0 -6.359375 2.453125 -11.3752365q2.46875 -5.0314865 6.984375 -7.7350388q4.515625 -2.7191772 10.296875 -2.7197342q8.671875 -8.239746E-4 13.640625 5.467453q4.984375 5.468277 4.984375 15.499527l0 4.609375l-26.90625 0.0025634766q0.546875 4.1405716 3.296875 6.640312q2.75 2.499733 6.96875 2.4993362q6.53125 -6.2561035E-4 10.203125 -4.7197266l5.546875 6.2025986q-2.546875 3.5939941 -6.890625 5.610031q-4.328125 2.016037 -9.59375 2.0165405zm-1.296875 -34.687378q-3.359375 3.2043457E-4 -5.453125 2.2661438q-2.078125 2.2658234 -2.671875 6.484627l15.703125 -0.0014953613l0 -0.90625q-0.078125 -3.7499924 -2.03125 -5.7966766q-1.953125 -2.046692 -5.546875 -2.0463486zm35.476562 -8.362755l0.34375 4.8749695q4.53125 -5.656685 12.15625 -5.6574097q6.71875 -6.4086914E-4 10.0 3.9521713q3.28125 3.9371872 3.359375 11.78093l0 27.3125l-11.296875 0.0010681152l0 -27.031242q0 -3.59375 -1.5625 -5.218605q-1.5625 -1.6248474 -5.1875 -1.6245041q-4.765625 4.5776367E-4 -7.15625 4.0631866l0 29.812492l-11.28125 0.001083374l0 -42.265625l10.625 -0.0010147095zm32.648438 20.809387q0 -9.875 4.4375 -15.734795q4.4375 -5.8598022 12.125 -5.8605347q6.171875 -5.874634E-4 10.203125 4.608406l0 -21.5625l11.328125 -0.001083374l0 60.000008l-10.203125 9.613037E-4l-0.546875 -4.4999466q-4.21875 5.2816544 -10.859375 5.282295q-7.453125 7.019043E-4 -11.96875 -5.873863q-4.515625 -5.8901978 -4.515625 -16.358948zm11.296875 0.82704926q0 5.9375 2.0625 9.109177q2.078125 3.1560516 6.015625 3.1556778q5.234375 -4.9591064E-4 7.390625 -4.422577l0 -16.671875q-2.109375 -4.4216766 -7.3125 -4.4211807q-8.15625 7.7819824E-4 -8.15625 13.250778zm58.4375 8.931931q0 -2.0625 -2.0625 -3.2498016q-2.046875 -1.2029343 -6.578125 -2.1399994q-15.078125 -3.1548157 -15.078125 -12.811066q0 -5.625 4.671875 -9.3910675q4.671875 -3.7660675 12.203125 -3.7667923q8.046875 -7.6293945E-4 12.875 3.7956543q4.828125 3.7807846 4.828125 9.82766l-11.296875 0.0010757446q0 -2.421875 -1.5625 -3.9998474q-1.5625 -1.57798 -4.875 -1.5776596q-2.859375 2.746582E-4 -4.421875 1.2972946q-1.5625 1.2814026 -1.5625 3.2657776q0 1.875 1.78125 3.0310745q1.78125 1.1560822 6.0 1.9994278q4.21875 0.8277283 7.109375 1.8899536q8.9375 3.2803955 8.9375 11.3585205q0 5.78125 -4.96875 9.359848q-4.953125 3.5785904 -12.796875 3.579338q-5.3125 5.187988E-4 -9.4375 -1.8897171q-4.125 -1.9058609 -6.46875 -5.202507q-2.34375 -3.2966537 -2.34375 -7.1247787l10.703125 -0.0010223389q0.15625 2.9999847 2.21875 4.6091614q2.078125 1.5935516 5.5625 1.5932236q3.234375 -3.0517578E-4 4.890625 -1.2192154q1.671875 -1.2345352 1.671875 -3.2345352z" fill-rule="nonzero"/></g><g filter="url(#shadowFilter-p.3)"><use xlink:href="#p.3" transform="matrix(1.0 0.0 0.0 1.0 0.0 1.9999999999999951)"/></g><defs><filter id="shadowFilter-p.3" filterUnits="userSpaceOnUse"><feGaussianBlur in="SourceAlpha" stdDeviation="2.0" result="blur"/><feComponentTransfer in="blur" color-interpolation-filters="sRGB"><feFuncR type="linear" slope="0" intercept="0.0"/><feFuncG type="linear" slope="0" intercept="0.0"/><feFuncB type="linear" slope="0" intercept="0.0"/><feFuncA type="linear" slope="0.5" intercept="0"/></feComponentTransfer></filter></defs><g id="p.3"><path fill="#000000" fill-opacity="0.0" d="m-1.527559 -22.348017l279.87402 -0.062992096l0 65.32283l-279.87402 0.062992096z" fill-rule="evenodd"/><path fill="#087e4f" d="m55.363064 16.04855l-17.421875 0.003921509l0 47.390625l-11.718748 0.0026397705l0 -47.39063l-17.1875 0.0038700104l0 -9.484376l46.328125 -0.010426998l0 9.484375zm21.921879 48.166943q-9.296875 0.002090454 -15.140629 -5.6997185q-5.84375 -5.701809 -5.84375 -15.201809l0 -1.09375q0 -6.359375 2.453125 -11.375553q2.46875 -5.031807 6.984379 -7.7359467q4.515625 -2.7197666 10.296875 -2.7210674q8.671867 -0.001953125 13.640617 5.465679q4.984375 5.4676285 4.984375 15.498877l0 4.609379l-26.906242 0.0060539246q0.546875 4.140503 3.296875 6.639885q2.75 2.4993782 6.96875 2.4984283q6.5312424 -0.0014686584 10.203117 -4.7210464l5.546875 6.2018776q-2.546875 3.5943222 -6.890625 5.6109276q-4.3281174 2.0166016 -9.593742 2.017784zm-1.296875 -34.68721q-3.359375 7.572174E-4 -5.453125 2.2668533q-2.078125 2.2660904 -2.671875 6.4849777l15.703117 -0.0035362244l0 -0.90625q-0.078125 -3.749981 -2.0312424 -5.796417q-1.953125 -2.0464363 -5.546875 -2.0456276zm48.83593 2.207758q-2.3125 -0.3119793 -4.0625 -0.31158447q-6.40625 0.0014419556 -8.40625 4.34564l0 27.656254l-11.28125 0.0025367737l0 -42.265625l10.65625 -0.0023994446l0.3125 5.0311813q3.40625 -5.8132668 9.421875 -5.814621q1.875 -4.234314E-4 3.515625 0.49920845l-0.15625 10.859409zm16.00782 -10.581728l0.359375 4.71867q4.484375 -5.501009 12.140625 -5.502733q8.171875 -0.0018386841 11.21875 6.4349747q4.453125 -6.4385014 12.6875 -6.4403553q6.875 -0.0015468597 10.234375 3.9976978q3.359375 3.9992428 3.359375 12.046118l0 27.0l-11.328125 0.0025520325l0 -26.953125q0 -3.59375 -1.40625 -5.2496853q-1.40625 -1.6715584 -4.953125 -1.6707611q-5.078125 0.0011444092 -7.03125 4.845335l0.03125 29.031242l-11.28125 0.0025405884l0 -26.921879q0 -3.671875 -1.453125 -5.312172q-1.4375 -1.6403008 -4.921875 -1.6395168q-4.796875 0.0010795593 -6.953125 3.985941l0 29.890625l-11.28125 0.0025405884l0 -42.265625l10.578125 -0.0023822784z" fill-rule="nonzero"/></g></g></svg>